<svg xmlns="http://www.w3.org/2000/svg" width="30" height="30" viewBox="0 0 30 30" fill="none">
  <g clip-path="url(#clip0_18_572)">
    <path d="M12.8232 15.8858C12.9381 17.8127 12.6012 19.5786 13.1717 21.2967C13.6552 22.751 14.6389 23.9866 15.9476 24.7834C17.2562 25.5803 18.8051 25.8867 20.3184 25.6483C21.8223 25.4088 23.1916 24.6409 24.1806 23.4826C25.1697 22.3242 25.7138 20.8512 25.7154 19.3277C25.7403 13.7617 25.7154 8.19573 25.725 2.62975C25.7165 2.32459 25.737 2.01932 25.7862 1.71804C25.8781 1.21857 26.1472 0.769096 26.544 0.452355C26.9408 0.135615 27.4386 -0.0270744 27.9458 -0.00576481C28.4643 0.0126304 28.9581 0.220698 29.3335 0.579008C29.709 0.937319 29.94 1.42097 29.9828 1.93831C29.9933 2.06891 29.9971 2.19996 29.9943 2.33095C29.9943 8.00611 30.0096 13.6813 29.9943 19.3545C29.9763 21.992 28.9853 24.5298 27.2116 26.4811C25.4378 28.4324 23.0063 29.6596 20.3835 29.9272C15.0498 30.5018 10.0549 26.9125 8.86025 21.6453C8.681 20.8347 8.59366 20.0065 8.59988 19.1764C8.59988 16.4694 8.59988 13.7624 8.59988 11.0553C8.59988 9.82569 9.01724 9.07104 9.92853 8.73202C10.9585 8.34896 11.7779 8.7033 12.515 9.46369C13.8551 10.8427 15.224 12.1873 16.5833 13.5434C16.7307 13.6908 16.8915 13.8249 17.1921 14.0969C17.0887 12.1816 17.4046 10.4577 16.8628 8.74926C16.3925 7.29085 15.4211 6.04618 14.1209 5.23594C12.8208 4.4257 11.2759 4.10224 9.76006 4.32291C8.23275 4.55323 6.83961 5.3266 5.83605 6.50123C4.83249 7.67586 4.28577 9.17302 4.29611 10.7182C4.27697 16.2402 4.29611 21.7621 4.29611 27.284C4.30356 27.5894 4.28692 27.8949 4.24633 28.1976C4.16588 28.7093 3.89982 29.1734 3.49899 29.5013C3.09816 29.8292 2.59065 29.9979 2.07339 29.9751C1.56649 29.9572 1.08283 29.758 0.710401 29.4135C0.337968 29.069 0.101511 28.6022 0.0440408 28.098C0.0290636 27.9466 0.0226706 27.7944 0.0248948 27.6422C0.0248948 21.967 -0.0114804 16.29 0.0248948 10.6167C0.0328166 9.20407 0.32059 7.80702 0.871574 6.50633C1.42256 5.20565 2.22582 4.02715 3.2349 3.03898C4.24399 2.05082 5.43888 1.2726 6.75047 0.749325C8.06207 0.22605 9.46434 -0.0318943 10.8762 -0.00959339C16.4971 0.0670203 21.1685 4.52402 21.381 10.1417C21.4939 13.1699 21.4154 16.2076 21.4116 19.2415C21.4116 20.1858 20.9694 20.8868 20.0868 21.2354C19.6918 21.4071 19.253 21.4507 18.832 21.36C18.411 21.2693 18.0289 21.0489 17.7396 20.7297C16.3025 19.2971 14.8666 17.8625 13.432 16.426C13.2827 16.2919 13.1238 16.1616 12.8232 15.8858Z" fill="#264CC8"/>
  </g>
  <defs>
    <clipPath id="clip0_18_572">
      <rect width="30" height="30" fill="white"/>
    </clipPath>
  </defs>
</svg>
